<?xml version="1.0" encoding="UTF-8"?>
<!DOCTYPE svg PUBLIC "-//W3C//DTD SVG 1.1//EN" "http://www.w3.org/Graphics/SVG/1.1/DTD/svg11.dtd">
<!-- Creator: CorelDRAW 2018 (64 Bit Versão de avaliação) -->
<svg xmlns="http://www.w3.org/2000/svg" xml:space="preserve" width="165px" height="45px" version="1.1" style="shape-rendering:geometricPrecision; text-rendering:geometricPrecision; image-rendering:optimizeQuality; fill-rule:evenodd; clip-rule:evenodd"
viewBox="0 0 238.44 64.97"
 xmlns:xlink="http://www.w3.org/1999/xlink">
 <defs>
  <style type="text/css">
   <![CDATA[
    .fil0 {fill:#FEFEFE;fill-rule:nonzero}
   ]]>
  </style>
 </defs>
 <g id="Camada_x0020_1">
  <metadata id="CorelCorpID_0Corel-Layer"/>
  <path class="fil0" d="M30.74 64.09c-4.41,0 -8.49,-0.82 -12.23,-2.48 -3.75,-1.65 -7,-3.92 -9.76,-6.79 -2.76,-2.87 -4.9,-6.28 -6.44,-10.23 -1.54,-3.95 -2.31,-8.22 -2.31,-12.8 0,-4.65 0.77,-8.89 2.31,-12.72 1.54,-3.83 3.68,-7.1 6.44,-9.8 2.76,-2.69 6.01,-4.79 9.76,-6.27 3.74,-1.48 7.82,-2.22 12.23,-2.22l34.31 0 0 11.06 -34.31 0c-2.84,0 -5.47,0.51 -7.88,1.53 -2.41,1.01 -4.48,2.42 -6.23,4.22 -1.74,1.8 -3.1,3.95 -4.09,6.45 -0.99,2.49 -1.48,5.25 -1.48,8.27 0,2.96 0.49,5.72 1.48,8.27 0.99,2.56 2.35,4.75 4.09,6.58 1.75,1.83 3.82,3.26 6.23,4.31 2.41,1.04 5.04,1.57 7.88,1.57l34.31 0 0 11.05 -34.31 0zm43.2 0l0 -63.31 46.32 0c3.08,0 5.88,0.35 8.41,1.05 2.52,0.7 4.69,1.73 6.49,3.09 1.8,1.36 3.19,3.08 4.18,5.14 0.98,2.06 1.48,4.43 1.48,7.1 0,2.03 -0.24,3.8 -0.7,5.31 -0.46,1.51 -1.1,2.8 -1.92,3.87 -0.81,1.08 -1.75,1.98 -2.83,2.7 -1.07,0.73 -2.19,1.27 -3.35,1.61 2.9,0.93 5.28,2.62 7.14,5.05 1.86,2.44 2.79,5.52 2.79,9.24 0,2.9 -0.48,5.53 -1.44,7.88 -0.96,2.35 -2.32,4.37 -4.09,6.05 -1.77,1.68 -3.92,2.98 -6.45,3.87 -2.52,0.9 -5.32,1.35 -8.4,1.35l-47.63 0zm19.07 -27.51l0 -9.32 27.34 0c3.14,0 5.46,-0.58 6.97,-1.74 1.51,-1.17 2.26,-3.14 2.26,-5.93 0,-1.68 -0.32,-3.03 -0.96,-4.05 -0.63,-1.01 -1.55,-1.8 -2.74,-2.35 -1.19,-0.55 -2.61,-0.91 -4.27,-1.09 -1.65,-0.17 -3.49,-0.26 -5.53,-0.26l-31.08 0 0 41.28 32.04 0c1.98,0 3.8,-0.14 5.49,-0.43 1.68,-0.29 3.13,-0.77 4.35,-1.44 1.22,-0.67 2.17,-1.52 2.83,-2.57 0.67,-1.04 1,-2.35 1,-3.92 0,-2.61 -0.81,-4.63 -2.43,-6.05 -1.63,-1.42 -4.01,-2.13 -7.14,-2.13l-28.13 0zm134.46 27.51l-12.11 -44.5 -17.94 41.2c-0.64,1.33 -1.41,2.36 -2.31,3.09 -0.9,0.72 -2.01,1.09 -3.35,1.09 -2.61,0 -4.5,-1.4 -5.66,-4.18l-17.85 -41.2 -12.11 44.5 -10.88 0 16.28 -59.56c0.76,-3.02 2.59,-4.53 5.49,-4.53 1.16,0 2.25,0.32 3.26,0.96 1.02,0.64 1.79,1.57 2.31,2.78l19.51 44.77 19.51 -44.77c1.04,-2.49 2.81,-3.74 5.31,-3.74 2.67,0 4.44,1.51 5.31,4.53l16.2 59.56 -10.97 0z"/>
 </g>
</svg>
